<?xml version="1.0" encoding="UTF-8"?>
<svg version="1.1" xmlns="http://www.w3.org/2000/svg" width="1024" height="358">
<path d="M0 0 C14.54568205 12.41943251 22.56283865 29.63758577 24.25634766 48.63769531 C25.38468844 64.98154059 24.97448093 82.45318342 18.40136719 97.73828125 C17.95277344 98.80304688 17.50417969 99.8678125 17.04199219 100.96484375 C9.31641419 117.85074994 -3.52550353 129.03080035 -20.55566406 136.4140625 C-31.3203592 140.24615462 -42.1255294 141.23978566 -53.47363281 141.11328125 C-55.44481079 141.09914185 -55.44481079 141.09914185 -57.45581055 141.0847168 C-79.53402234 140.74164547 -99.55268395 135.33344613 -115.41113281 119.17578125 C-132.23596899 99.2272163 -133.76276917 73.64546234 -132.59863281 48.73828125 C-131.06555801 32.10902724 -123.63418667 15.42148453 -111.59863281 3.73828125 C-82.48628179 -20.11188929 -30.61256765 -24.16092694 0 0 Z " fill="#FFFFFF" transform="translate(741.5986328125,105.26171875)"/>
<path d="M0 0 C10.72771588 -0.02327534 21.45542565 -0.04099199 32.18316174 -0.05181217 C37.16565538 -0.05700798 42.14813161 -0.06404494 47.13061523 -0.07543945 C51.94818096 -0.08638658 56.76573005 -0.09230164 61.58330727 -0.09487724 C63.41189142 -0.09671034 65.24047477 -0.10028944 67.06905174 -0.10573006 C95.3084066 -0.18633155 95.3084066 -0.18633155 108 4 C109.26457031 4.38091797 109.26457031 4.38091797 110.5546875 4.76953125 C119.28664028 7.74818804 126.30337279 13.60164801 131 21.5625 C136.24996512 32.37779916 136.5960843 44.39528125 133.375 55.9375 C131.4457773 61.46116921 129.02530181 65.76079326 125 70 C124.48695313 70.54140625 123.97390625 71.0828125 123.4453125 71.640625 C118.86177032 75.98292812 111.48806955 81 105 81 C109.90941812 89.00373446 115.23080214 96.66183957 120.671875 104.30859375 C123.01365136 107.60040213 125.33385798 110.90621999 127.640625 114.22265625 C128.55799438 115.54052124 128.55799438 115.54052124 129.49389648 116.88500977 C130.66966923 118.57566649 131.84377614 120.26748348 133.01586914 121.96069336 C135.83258438 126.00451707 138.69344686 130.01597295 141.63671875 133.96875 C142.4424231 135.05833008 142.4424231 135.05833008 143.2644043 136.16992188 C147.71109136 140.85867785 154.86266929 141.34709248 161 142 C161 144.64 161 147.28 161 150 C154.24437868 150.48538288 147.49327797 150.8157592 140.72412109 151.04370117 C138.42781798 151.13874843 136.13265029 151.26806503 133.84033203 151.43334961 C115.36427794 152.73125424 115.36427794 152.73125424 109.83947754 148.2460022 C106.0110128 143.7453993 103.46647292 138.66707055 101.05871582 133.30209351 C99.73036845 130.4137076 98.09129157 127.81728816 96.328125 125.17578125 C95.81789795 124.3664917 95.3076709 123.55720215 94.78198242 122.72338867 C93.69905806 121.019185 92.60718669 119.32065106 91.5090332 117.6262207 C88.24656805 112.58988599 85.1293448 107.51574996 82.15234375 102.3046875 C80.83135443 100.09858381 79.50975342 97.89284627 78.1875 95.6875 C77.33816895 94.11125854 77.33816895 94.11125854 76.47167969 92.50317383 C73.28414158 87.22889426 73.28414158 87.22889426 67.97808838 84.4541626 C62.9775077 83.71929967 58.03825511 83.76947285 53 84 C53.06687789 91.35099898 53.15663585 98.70146097 53.26245117 106.05200195 C53.29574471 108.55356465 53.32376268 111.05520327 53.34643555 113.55688477 C53.3798996 117.14893002 53.43221243 120.74027666 53.48828125 124.33203125 C53.49467117 125.45398392 53.5010611 126.57593658 53.50764465 127.73188782 C53.52743881 128.77274033 53.54723297 129.81359283 53.56762695 130.88598633 C53.58428154 132.2616552 53.58428154 132.2616552 53.60127258 133.66511536 C54.07906864 136.46301347 54.73525411 137.33226048 57 139 C60.37805821 139.97985563 60.37805821 139.97985563 64.125 140.625 C70.91666667 141.91666667 70.91666667 141.91666667 72 143 C72 145.31 72 147.62 72 150 C48.24 150 24.48 150 0 150 C0 147.36 0 144.72 0 142 C0.89203125 141.82984375 1.7840625 141.6596875 2.703125 141.484375 C3.87359375 141.24203125 5.0440625 140.9996875 6.25 140.75 C7.41015625 140.51796875 8.5703125 140.2859375 9.765625 140.046875 C13.35382311 138.88547754 14.6469949 137.89428512 17 135 C17.59537426 132.59376646 17.59537426 132.59376646 17.50793457 129.94554138 C17.51921387 128.92626556 17.53049316 127.90698975 17.54211426 126.85682678 C17.53401733 125.74448166 17.52592041 124.63213654 17.51757812 123.48608398 C17.5245874 122.31013672 17.53159668 121.13418945 17.53881836 119.92260742 C17.55340412 116.70144865 17.54999043 113.48094763 17.53730202 110.25979877 C17.52717018 106.88860368 17.53656797 103.51745231 17.54284668 100.14625549 C17.5501216 94.48617673 17.54053862 88.82630682 17.52148438 83.16625977 C17.49970514 76.62114094 17.50677478 70.0765203 17.52879 63.5314135 C17.54693609 57.91175616 17.54950661 52.29224888 17.53903532 46.67257172 C17.53279727 43.31617664 17.53197318 39.96001584 17.54518127 36.60363579 C17.55530452 32.86358489 17.53990367 29.12450014 17.51757812 25.38452148 C17.52567505 24.27015213 17.53377197 23.15578278 17.54211426 22.00764465 C17.53083496 20.99118866 17.51955566 19.97473267 17.50793457 18.92747498 C17.50567242 17.60097254 17.50567242 17.60097254 17.50336456 16.24767208 C17.18534233 13.85363082 17.18534233 13.85363082 15.17040253 12.25135899 C12.28259315 10.58637465 9.50559044 9.99617399 6.25 9.3125 C5.07953125 9.06113281 3.9090625 8.80976562 2.703125 8.55078125 C1.81109375 8.36902344 0.9190625 8.18726562 0 8 C0 5.36 0 2.72 0 0 Z " fill="#FFFFFF" transform="translate(350,93)"/>
<path d="M0 0 C10.78975051 7.23318463 15.99471093 17.68025962 19 30 C19.18030762 30.71736328 19.36061523 31.43472656 19.54638672 32.17382812 C21.4411394 40.96140349 21.37218733 49.78348316 21.37060547 58.73046875 C21.37494731 61.46679456 21.41127297 64.20146142 21.44921875 66.9375 C21.57282548 85.99516629 18.92748495 105.0748039 7.0078125 120.59375 C-0.24496728 127.92863672 -11.1793734 131.18660433 -21.3125 131.5 C-32.15415057 130.96155561 -41.35570485 127.19406163 -48.75 119.1875 C-61.00921416 104.2318147 -62.3607811 84.06438737 -62.31567383 65.53198242 C-62.31252668 62.83535809 -62.33599397 60.13984784 -62.36132812 57.44335938 C-62.43250888 38.13776615 -60.24011478 18.96366836 -46.4140625 4.3203125 C-34.41801747 -6.999899 -14.3048654 -7.12355343 0 0 Z " fill="#001A0E" transform="translate(708,105)"/>
<path d="M0 0 C6.65141121 -0.33154695 13.30067535 -0.55801612 19.95849609 -0.71411133 C22.21907125 -0.7792115 24.47910469 -0.86772928 26.73779297 -0.98071289 C44.95186422 -1.8685183 44.95186422 -1.8685183 49.9413147 1.19003296 C53.58464574 4.55992168 55.71663438 8.64547628 58 13 C59.10197795 14.45892034 60.2412814 15.89127189 61.43359375 17.27734375 C61.93117188 17.88513672 62.42875 18.49292969 62.94140625 19.11914062 C63.68197266 20.01922852 63.68197266 20.01922852 64.4375 20.9375 C68.51083346 25.91868726 72.54084212 30.92757827 76.5 36 C80.52350179 41.15393182 84.61744773 46.24561105 88.75 51.3125 C92.6249454 56.06470707 96.47108629 60.83073356 100.21484375 65.6875 C106.51240481 73.84539091 112.91990177 81.91798993 119.36328125 89.9609375 C119.90940063 90.64309326 120.45552002 91.32524902 121.01818848 92.02807617 C122.34521073 93.6855829 123.67256935 95.34282032 125 97 C125.11587487 86.52538437 125.20470578 76.05092132 125.25906086 65.57579517 C125.2851494 60.7116767 125.32053384 55.84799687 125.37719727 50.98413086 C125.43154363 46.28975301 125.46142613 41.59579694 125.47438622 36.90112877 C125.48362141 35.11052498 125.50165593 33.31994415 125.52865028 31.52952003 C125.5649767 29.02023152 125.56994403 26.51268319 125.56762695 24.00317383 C125.58560333 23.26374039 125.60357971 22.52430695 125.62210083 21.76246643 C125.58319183 17.865409 125.13106862 16.16476045 122.67546082 13.07792664 C117.7398104 9.24459841 112.06952354 8.74320696 106 8 C106 5.36 106 2.72 106 0 C122.83 0 139.66 0 157 0 C157 2.64 157 5.28 157 8 C156.11957031 8.09796875 155.23914063 8.1959375 154.33203125 8.296875 C153.17058594 8.44640625 152.00914062 8.5959375 150.8125 8.75 C149.66394531 8.88921875 148.51539063 9.0284375 147.33203125 9.171875 C143.50702809 10.12252057 141.79279165 11.24398121 139 14 C138.25208246 16.65823012 138.25208246 16.65823012 138.36076355 19.644104 C138.34547607 20.79392761 138.3301886 21.94375122 138.31443787 23.12841797 C138.32306351 24.3857373 138.33168915 25.64305664 138.34057617 26.93847656 C138.33212207 28.27896618 138.32147753 29.61944351 138.30880737 30.9598999 C138.28064456 34.59608181 138.28313523 38.23167417 138.29110122 41.86793232 C138.29422467 45.6690219 138.26919674 49.46992317 138.24714661 53.27093506 C138.20968092 60.4673601 138.19755714 67.66359616 138.1945222 74.86010909 C138.18983409 83.05360746 138.15691879 91.24691619 138.12162435 99.44033098 C138.04965928 116.29354003 138.01316823 133.14664458 138 150 C136.05765171 150.05169842 134.11491095 150.08881362 132.17211914 150.11962891 C131.09031876 150.14183502 130.00851837 150.16404114 128.89393616 150.18692017 C126 150 126 150 123.24609375 148.0859375 C122.64925781 147.19132813 122.05242187 146.29671875 121.4375 145.375 C120.72078125 144.36695313 120.0040625 143.35890625 119.265625 142.3203125 C118.90017578 141.77793945 118.53472656 141.23556641 118.15820312 140.67675781 C116.14247716 137.75854408 113.8984648 135.02123227 111.6875 132.25 C110.75558781 131.06061814 109.8246126 129.8705016 108.89453125 128.6796875 C105.9197169 124.88580963 102.89743971 121.13095297 99.875 117.375 C95.56053025 112.0052863 91.38068762 106.55413893 87.2734375 101.0234375 C84.29193061 97.05834071 81.2229063 93.16612118 78.14941406 89.2722168 C74.72765892 84.93447133 71.34795836 80.56627262 67.98510742 76.18261719 C60.10888758 65.92363649 52.20043731 55.68683511 44.08154297 45.6184082 C41.60832137 42.50730081 39.18467257 39.36032319 36.765625 36.20703125 C36.30559082 35.60814087 35.84555664 35.00925049 35.37158203 34.39221191 C34.24730469 32.92846122 33.12359406 31.46427526 32 30 C31.90739905 43.6211585 31.83628513 57.24224235 31.79275131 70.86365128 C31.7718593 77.1883479 31.74351166 83.51282949 31.69824219 89.83740234 C31.65484284 95.93874989 31.63087506 102.03989035 31.62049103 108.14138031 C31.61308909 110.47145601 31.5986352 112.80152013 31.57707977 115.13150787 C31.54812513 118.39033171 31.54404078 121.6482952 31.54589844 124.90722656 C31.53151733 125.874673 31.51713623 126.84211945 31.50231934 127.83888245 C31.47111014 133.07398794 31.47111014 133.07398794 33.90338135 137.56829834 C38.34054643 140.59827073 42.87997578 140.7641149 48.12890625 141.5 C51 142 51 142 52 143 C52 145.31 52 147.62 52 150 C34.51 150 17.02 150 -1 150 C-1 147.69 -1 145.38 -1 143 C0.423125 142.5978125 0.423125 142.5978125 1.875 142.1875 C2.50535156 142.00445312 3.13570312 141.82140625 3.78515625 141.6328125 C5.39250322 141.17357051 7.00531339 140.73331478 8.62109375 140.3046875 C9.50925781 140.05976563 10.39742187 139.81484375 11.3125 139.5625 C12.15425781 139.33691406 12.99601563 139.11132812 13.86328125 138.87890625 C16.34214805 138.09179994 16.34214805 138.09179994 18 135 C18.30664298 132.68265381 18.30664298 132.68265381 18.26742554 130.0657959 C18.27595551 129.04789474 18.28448547 128.02999359 18.29327393 126.98124695 C18.29236755 125.86530655 18.29146118 124.74936615 18.29052734 123.59960938 C18.29724457 122.42380814 18.30396179 121.2480069 18.31088257 120.03657532 C18.32663937 116.8114076 18.33323832 113.58639433 18.33451414 110.3611927 C18.33641306 107.66970303 18.34377024 104.9782381 18.35085833 102.28675795 C18.3671431 95.93839229 18.37202709 89.59008336 18.37060547 83.24169922 C18.36940303 76.68924948 18.39052472 70.13712858 18.4220928 63.5847621 C18.44822359 57.96090629 18.45897417 52.33715813 18.45769465 46.71324205 C18.45718419 43.35344412 18.46291315 39.9939386 18.48405075 36.63420105 C18.50355877 32.88931651 18.49793221 29.14528777 18.48583984 25.40039062 C18.50269836 23.72648003 18.50269836 23.72648003 18.51989746 22.01875305 C18.51150848 21.0008519 18.50311951 19.98295074 18.49447632 18.9342041 C18.49611062 17.60575344 18.49611062 17.60575344 18.49777794 16.25046539 C18.18899952 13.84819596 18.18899952 13.84819596 16.14097023 12.26192474 C11.03115915 9.25011405 5.78948734 8.59891248 0 8 C0 5.36 0 2.72 0 0 Z " fill="#FFFFFF" transform="translate(781,93)"/>
<path d="M0 0 C1.38130679 0.00138269 1.38130679 0.00138269 2.79051876 0.00279331 C3.84366268 0.00141865 4.8968066 0.00004398 5.98186398 -0.00137234 C7.72973454 0.00402058 7.72973454 0.00402058 9.51291561 0.00952244 C10.73225796 0.00937641 11.9516003 0.00923038 13.20789242 0.00907993 C16.56105596 0.0096589 19.91415859 0.01468815 23.26731133 0.02165389 C26.76803646 0.027888 30.26876233 0.02849127 33.76949215 0.0296793 C40.4028774 0.03279245 47.03624625 0.04100561 53.66962427 0.05102879 C61.21968292 0.06219044 68.76974233 0.06770051 76.31980717 0.07272422 C91.85480952 0.08318824 107.38978927 0.10153351 122.92478085 0.12304783 C122.92478085 12.00304783 122.92478085 23.88304783 122.92478085 36.12304783 C120.28478085 36.12304783 117.64478085 36.12304783 114.92478085 36.12304783 C114.63603085 34.96804783 114.34728085 33.81304783 114.04978085 32.62304783 C113.86544491 31.89472752 113.68110897 31.1664072 113.4911871 30.41601658 C113.12748058 28.94363226 112.7796967 27.46717159 112.4521246 25.98632908 C111.29303775 20.87271062 110.09130141 16.93681511 105.99948788 13.51123142 C101.39581147 11.43274134 97.03730626 11.69471534 92.04196835 11.72461033 C90.99074795 11.72174015 89.93952755 11.71886997 88.85645199 11.71591282 C86.63915116 11.71387488 84.42183225 11.71938581 82.204566 11.73193455 C78.80490819 11.74802356 75.40643351 11.7320596 72.0068121 11.71289158 C69.85186155 11.71487343 67.69691174 11.71871589 65.54196835 11.72461033 C64.52319607 11.71853764 63.50442379 11.71246494 62.45477962 11.70620823 C61.51014858 11.71566471 60.56551754 11.72512119 59.59226131 11.73486423 C58.76128933 11.73725101 57.93031734 11.73963779 57.07416439 11.7420969 C54.87362894 11.97950804 54.87362894 11.97950804 53.16008663 13.33342075 C51.52136507 15.70748919 51.5279074 17.26979664 51.4924078 20.14526463 C51.47261364 21.16609638 51.45281948 22.18692814 51.4324255 23.23869419 C51.42284061 24.88881252 51.42284061 24.88881252 51.4130621 26.57226658 C51.39511089 27.70002003 51.37715969 28.82777348 51.35866451 29.98970127 C51.30442232 33.59661193 51.2706205 37.20338921 51.23728085 40.81054783 C51.20412014 43.25392582 51.16963166 45.69728618 51.13376522 48.14062595 C51.04868786 54.13464699 50.98039692 60.12868499 50.92478085 66.12304783 C55.51514924 66.05391347 60.10462897 65.96582494 64.6943121 65.86059666 C66.25378166 65.82746116 67.81336786 65.79939413 69.37302303 65.77661228 C71.62254937 65.74285502 73.87101772 65.69053279 76.12009335 65.63476658 C77.15639385 65.62518169 77.15639385 65.62518169 78.21362972 65.61540318 C82.80665299 65.47770145 86.00820084 64.51700651 89.92478085 62.12304783 C91.18062434 60.38465541 91.18062434 60.38465541 91.67478085 58.37304783 C92.00155819 57.3289072 92.00155819 57.3289072 92.3349371 56.26367283 C92.52958553 55.55726658 92.72423397 54.85086033 92.92478085 54.12304783 C93.12974178 53.43726658 93.33470272 52.75148533 93.5458746 52.04492283 C94.0275271 50.41062605 94.47938264 48.76759504 94.92478085 47.12304783 C97.23478085 47.12304783 99.54478085 47.12304783 101.92478085 47.12304783 C101.92478085 63.29304783 101.92478085 79.46304783 101.92478085 96.12304783 C99.61478085 96.12304783 97.30478085 96.12304783 94.92478085 96.12304783 C94.57866756 94.44275486 94.57866756 94.44275486 94.2255621 92.72851658 C93.89720944 91.25562039 93.56772275 89.7829767 93.23728085 88.31054783 C93.08839413 87.57255955 92.93950741 86.83457127 92.78610897 86.0742197 C92.6217535 85.36201267 92.45739803 84.64980564 92.2880621 83.91601658 C92.14666805 83.26141453 92.00527401 82.60681248 91.8595953 81.932374 C90.41054771 79.12775356 88.79474088 78.39411229 85.92478085 77.12304783 C83.14006999 76.80456395 80.56540148 76.63538624 77.7802496 76.61132908 C77.01046276 76.59337788 76.24067593 76.57542667 75.44756222 76.5569315 C73.00252321 76.50299396 70.55767753 76.46898709 68.11228085 76.43554783 C66.44884258 76.40236001 64.78542977 76.36786899 63.12204647 76.3320322 C59.05643114 76.24727746 54.99087149 76.1803881 50.92478085 76.12304783 C51.03230612 83.63358579 51.14494442 91.14403226 51.2641201 98.65439415 C51.31929661 102.14171623 51.37270811 105.62904678 51.4220953 109.11645603 C51.47894339 113.1252563 51.54345132 117.1339014 51.6083746 121.14257908 C51.62508709 122.39577442 51.64179958 123.64896976 51.65901852 124.94014072 C51.68893635 126.68160625 51.68893635 126.68160625 51.71945858 128.45825291 C51.742775 129.99380581 51.742775 129.99380581 51.76656246 131.56037998 C51.82193706 134.24312759 51.82193706 134.24312759 52.92478085 137.12304783 C55.43854027 138.37992754 57.18433015 138.26360742 59.99777889 138.28418064 C61.58534245 138.29859196 61.58534245 138.29859196 63.20497799 138.31329441 C64.92833118 138.31966923 64.92833118 138.31966923 66.6864996 138.32617283 C67.86565441 138.3318729 69.04480923 138.33757298 70.25969601 138.34344578 C72.76059729 138.3529075 75.26151111 138.35943439 77.76242733 138.3632822 C81.57913859 138.37296376 85.395306 138.40396707 89.21189022 138.43554783 C91.64092348 138.44208015 94.06996059 138.44732972 96.4989996 138.45117283 C97.63778057 138.46351963 98.77656155 138.47586643 99.94985104 138.48858738 C106.01379321 138.47164494 110.65411812 138.26394367 115.92478085 135.12304783 C117.83930998 131.79470468 117.83930998 131.79470468 118.92478085 128.12304783 C119.24575741 127.36379002 119.56673397 126.6045322 119.8974371 125.82226658 C121.08925996 122.69089928 121.82317541 119.58027227 122.54978085 116.31054783 C122.81017147 115.14910252 123.0705621 113.9876572 123.33884335 112.79101658 C123.62888241 111.47037205 123.62888241 111.47037205 123.92478085 110.12304783 C126.23478085 110.12304783 128.54478085 110.12304783 130.92478085 110.12304783 C130.92478085 123.32304783 130.92478085 136.52304783 130.92478085 150.12304783 C113.60100429 150.14559444 96.2772402 150.16402676 78.95345306 150.17486 C70.9102803 150.18002306 62.86711728 150.18706595 54.82395077 150.19848728 C47.81605124 150.20843381 40.80815877 150.21490118 33.80025238 150.21713632 C30.08734892 150.21844348 26.37446565 150.22152967 22.66156864 150.22877789 C18.52346674 150.23679114 14.38540024 150.23703899 10.24729061 150.23657322 C9.00723766 150.2401685 7.76718472 150.24376377 6.48955441 150.24746799 C4.80886868 150.245406 4.80886868 150.245406 3.0942297 150.24330235 C2.11436376 150.24422414 1.13449781 150.24514593 0.12493896 150.24609566 C-2.07521915 150.12304783 -2.07521915 150.12304783 -3.07521915 149.12304783 C-3.11614853 146.7900735 -3.11763639 144.45599558 -3.07521915 142.12304783 C-2.35076603 142.01347752 -1.6263129 141.9039072 -0.87990665 141.79101658 C6.9004556 140.54945958 6.9004556 140.54945958 13.92478085 137.12304783 C15.83420068 134.10513752 16.1769731 131.76457995 16.18547726 128.22717381 C16.19610447 126.75091274 16.19610447 126.75091274 16.20694637 125.24482822 C16.20446896 124.1714571 16.20199154 123.09808598 16.19943905 121.99218845 C16.20454998 120.85686176 16.20966091 119.72153507 16.21492672 118.55180454 C16.2288413 114.79424888 16.22786469 111.03687621 16.2255621 107.27929783 C16.22944763 104.67142767 16.233782 102.06355813 16.23854733 99.45568943 C16.24675829 93.98818427 16.24585325 88.52073079 16.24045467 83.05322361 C16.23441137 76.73428676 16.24673588 70.41557238 16.26802474 64.09667349 C16.28776007 58.01512317 16.2908152 51.93367695 16.28728962 45.85209751 C16.28780393 43.26526968 16.29306219 40.67843838 16.30310154 38.09162998 C16.31540267 34.47887995 16.30871214 30.86664859 16.2970953 27.2539072 C16.30473904 26.18053608 16.31238277 25.10716496 16.32025814 24.00126743 C16.30973667 22.52500637 16.30973667 22.52500637 16.29900265 21.01892185 C16.29925426 19.73804817 16.29925426 19.73804817 16.29951096 18.43129826 C15.83689582 15.58169651 14.87491776 14.22479672 12.92478085 12.12304783 C8.64788634 10.18826222 4.40589067 9.74880056 -0.2197504 9.36914158 C-2.07521915 9.12304783 -2.07521915 9.12304783 -3.07521915 8.12304783 C-3.20021915 4.62304783 -3.20021915 4.62304783 -3.07521915 1.12304783 C-2.07521915 0.12304783 -2.07521915 0.12304783 0 0 Z " fill="#FFFFFF" transform="translate(91.07521915435791,92.87695217132568)"/>
<path d="M0 0 C4.20777027 1.34290541 4.20777027 1.34290541 5.9375 3.9375 C6.123125 4.989375 6.30875 6.04125 6.5 7.125 C7.9383568 12.83048196 13.46472111 15.6117518 17.9375 18.9375 C27.5108256 26.60545497 34.72668961 34.55912522 36.18359375 47.046875 C36.70471618 55.95333115 33.61157675 63.45285489 27.75 70.0625 C26.16306749 71.70433462 24.55858827 73.32938044 22.9375 74.9375 C22.14214844 75.75734375 21.34679687 76.5771875 20.52734375 77.421875 C13.02008685 85.09206068 13.02008685 85.09206068 8.9375 87.9375 C8.2775 87.9375 7.6175 87.9375 6.9375 87.9375 C6.9375 88.9275 6.9375 89.9175 6.9375 90.9375 C7.46859375 91.15277344 7.9996875 91.36804688 8.546875 91.58984375 C11.8366822 93.44439193 14.44972237 95.9323892 17.1875 98.5 C17.76161621 99.0357666 18.33573242 99.5715332 18.92724609 100.12353516 C27.87131394 108.55967449 35.49291656 115.89763676 36.125 128.75 C35.89134913 139.18640562 31.49356664 147.50831749 24.125 154.83984375 C19.58379382 159.14215478 14.84338109 163.04821016 9.75 166.6875 C6.26525952 169.28018207 6.26525952 169.28018207 5.1875 173.625 C5.105 174.718125 5.0225 175.81125 4.9375 176.9375 C2.45430223 179.62763092 0.93023709 180.77204382 -2.6875 181.375 C-5.0625 180.9375 -5.0625 180.9375 -6.8125 179.9375 C-8.0625 177.9375 -8.0625 177.9375 -8.125 174.25 C-8.40433213 171.29015373 -8.80198626 170.20075023 -10.921875 168.05859375 C-12.63219885 166.7540633 -14.35747015 165.46899812 -16.09375 164.19921875 C-25.22286504 157.24427453 -33.37419303 149.00242092 -37.0625 137.9375 C-37.92110557 126.32521161 -37.21978754 117.51353496 -29.40332031 108.4296875 C-23.63170223 102.03552188 -16.80170123 94.80710061 -9.0625 90.9375 C-10.44109928 87.74386047 -11.94358828 85.94388231 -14.625 83.75 C-34.89464142 66.53368024 -34.89464142 66.53368024 -36.3828125 53.03125 C-37.01208243 41.54023382 -32.80741559 33.77297736 -25.375 25.25 C-20.36346441 20.01792642 -14.99794617 15.11086059 -9.0625 10.9375 C-8.4025 10.9375 -7.7425 10.9375 -7.0625 10.9375 C-7.145 9.865 -7.2275 8.7925 -7.3125 7.6875 C-7.0625 3.9375 -7.0625 3.9375 -5.4375 1.4375 C-3.0625 -0.0625 -3.0625 -0.0625 0 0 Z " fill="#EAA70D" transform="translate(288.0625,79.0625)"/>
<path d="M0 0 C24.09 0 48.18 0 73 0 C73 2.64 73 5.28 73 8 C72.11957031 8.09796875 71.23914063 8.1959375 70.33203125 8.296875 C68.58986328 8.52117187 68.58986328 8.52117187 66.8125 8.75 C65.08966797 8.95882812 65.08966797 8.95882812 63.33203125 9.171875 C59.28803304 10.17694841 57.75785281 10.83958968 55 14 C54.22667326 17.85164981 54.31763349 21.67274808 54.35302734 25.58984375 C54.34426575 26.77393829 54.33550415 27.95803284 54.32647705 29.17800903 C54.30824262 32.42208415 54.31251306 35.665139 54.32837248 38.90919876 C54.341039 42.30529156 54.32928931 45.70131661 54.32144165 49.09741211 C54.31234717 54.80041731 54.3243273 60.50309867 54.34814453 66.20605469 C54.37535596 72.79782659 54.36654162 79.38882526 54.3390125 85.98057842 C54.31631628 91.64188851 54.31312368 97.30296594 54.32620585 102.96430683 C54.33399776 106.34481288 54.33504977 109.72495558 54.31852341 113.10543823 C54.30585354 116.87421268 54.32514148 120.64149334 54.35302734 124.41015625 C54.34290619 125.53028107 54.33278503 126.65040588 54.32235718 127.80447388 C54.2784171 133.78310393 54.2784171 133.78310393 57.34805298 138.67480469 C60.37188138 140.18583156 62.89890772 140.77067695 66.25 141.1875 C71.92847125 141.92847125 71.92847125 141.92847125 73 143 C73 145.31 73 147.62 73 150 C48.58 150 24.16 150 -1 150 C-1 147.69 -1 145.38 -1 143 C2.98848024 141.60403192 6.95354689 140.48835893 11.0703125 139.5625 C13.41594108 138.94122813 13.41594108 138.94122813 17 137 C17 96.08 17 55.16 17 13 C12.38318368 10.69159184 9.92518633 9.57350515 5.125 8.8125 C4.15820312 8.65394531 3.19140625 8.49539062 2.1953125 8.33203125 C1.47085938 8.22246094 0.74640625 8.11289063 0 8 C0 5.36 0 2.72 0 0 Z " fill="#FFFFFF" transform="translate(518,93)"/>
<path d="M0 0 C31.32352941 0 31.32352941 0 39.3125 5.125 C47.72507105 14.12449462 48.56415211 23.61329263 48.3359375 35.3984375 C47.9301542 43.56440715 45.16757158 50.35796099 39.25 56.0625 C28.45684543 65.28360814 12.76808358 62 0 62 C0 41.54 0 21.08 0 0 Z " fill="#001A0E" transform="translate(403,104)"/>
<path d="M0 0 C4.20777027 1.34290541 4.20777027 1.34290541 5.9375 3.9375 C6.123125 4.989375 6.30875 6.04125 6.5 7.125 C7.9383568 12.83048196 13.46472111 15.6117518 17.9375 18.9375 C27.5108256 26.60545497 34.72668961 34.55912522 36.18359375 47.046875 C36.70471618 55.95333115 33.61157675 63.45285489 27.75 70.0625 C26.1616746 71.70298716 24.55730859 73.32809147 22.9375 74.9375 C21.77927734 76.14986328 21.77927734 76.14986328 20.59765625 77.38671875 C16.33043724 81.79982559 12.06233686 85.55728845 6.9375 88.9375 C4.46949953 87.78576645 2.88966435 86.88966435 0.9375 84.9375 C1.23896306 81.40240632 2.7269295 79.86154395 5.32421875 77.58203125 C6.01580078 76.95876953 6.70738281 76.33550781 7.41992188 75.69335938 C8.86929341 74.41601245 10.3197822 73.13993192 11.77148438 71.86523438 C19.02074245 65.32550664 24.87768051 58.50053857 25.5 48.4375 C25.31144549 37.94129881 18.02273785 31.84210513 10.9453125 24.97192383 C5.8245505 20.08738746 1.38556088 15.99889389 -5.0625 12.9375 C-7.38999345 9.44625983 -7.56549316 8.04527749 -7.0625 3.9375 C-4.87947885 0.66296827 -3.97767861 -0.08117711 0 0 Z " fill="#FFFFFF" transform="translate(288.0625,79.0625)"/>
<path d="M0 0 C3.77126791 1.01180358 4.78414572 1.67621858 7 5 C6.38125 5.56545532 6.38125 5.56545532 5.75 6.14233398 C-11.52554646 20.25857433 -11.52554646 20.25857433 -19.5625 39.75 C-19.04860786 53.27696729 -7.82079806 61.65495939 1.28588867 70.46289062 C3.12810852 72.18833723 3.12810852 72.18833723 6 74 C4.85850772 77.42447685 4.15307687 78.3358761 1 80 C-3.56007295 78.79338276 -6.54658589 75.9942527 -9.875 72.8125 C-10.6649939 72.06830811 -10.6649939 72.06830811 -11.47094727 71.30908203 C-12.5148557 70.32248181 -13.5557266 69.33265587 -14.59326172 68.33935547 C-15.767048 67.22179359 -16.96121824 66.12569118 -18.16015625 65.03515625 C-23.88984969 59.6832448 -28.6473591 52.76932358 -29.23828125 44.77734375 C-29.48130043 32.20429869 -27.21972101 24.67014216 -18.50073242 15.41186523 C-12.85937426 9.66207335 -6.70588301 4.47058867 0 0 Z " fill="#FFFFFF" transform="translate(280,169)"/>
<path d="M0 0 C14.85 0 29.7 0 45 0 C44.34 1.65 43.68 3.3 43 5 C38.05116736 5.79686632 33.2190441 6.18349409 28.203125 6.23828125 C27.48767517 6.246353 26.77222534 6.25442474 26.03509521 6.26274109 C24.53595327 6.27647036 23.03678153 6.28724153 21.53759766 6.29516602 C20.00527785 6.30677698 18.47300124 6.32736961 16.94091797 6.35668945 C14.71554387 6.3991838 12.49135325 6.41549708 10.265625 6.42578125 C9.23903778 6.45204338 9.23903778 6.45204338 8.19171143 6.47883606 C4.96262089 6.46402582 3.40809615 6.39713404 1.04589844 4.09838867 C0 2 0 2 0 0 Z " fill="#F6A601" transform="translate(264,220)"/>
<path d="M0 0 C2.51416016 0.15234375 2.51416016 0.15234375 4.51416016 2.15234375 C4.51416016 3.14234375 4.51416016 4.13234375 4.51416016 5.15234375 C-1.1746222 5.92249745 -6.81546884 6.43237631 -12.54833984 6.71484375 C-13.39235352 6.75730225 -14.23636719 6.79976074 -15.10595703 6.84350586 C-25.56176048 7.31677857 -36.02217871 7.24490472 -46.48583984 7.15234375 C-46.15583984 5.50234375 -45.82583984 3.85234375 -45.48583984 2.15234375 C-39.61434587 1.86566907 -33.74276398 1.58089322 -27.87109375 1.29785156 C-25.87497489 1.20136439 -23.87888073 1.10436477 -21.8828125 1.00683594 C-19.00836476 0.86647925 -16.13383229 0.72798535 -13.25927734 0.58984375 C-11.92768082 0.52422241 -11.92768082 0.52422241 -10.56918335 0.45727539 C-7.04675664 0.28945034 -3.52305613 0.15397024 0 0 Z " fill="#F0F1C5" transform="translate(307.48583984375,196.84765625)"/>
<path d="M0 0 C0.80060349 0.00007553 1.60120697 0.00015106 2.42607117 0.00022888 C3.71527214 0.00797081 3.71527214 0.00797081 5.03051758 0.01586914 C5.91411453 0.01728409 6.79771149 0.01869904 7.70808411 0.02015686 C10.53044011 0.0257547 13.3527168 0.03830678 16.17504883 0.05102539 C18.08845914 0.05604067 20.0018707 0.06060353 21.9152832 0.06469727 C26.60606897 0.07572342 31.29679545 0.09298656 35.98754883 0.11352539 C34.46582031 3.0703125 34.46582031 3.0703125 31.98754883 6.11352539 C29.14915926 6.70522822 27.16410905 6.8911393 24.33520508 6.80493164 C23.59805771 6.80355698 22.86091034 6.80218231 22.10142517 6.80076599 C20.5454964 6.79172103 18.98959305 6.7681271 17.43408203 6.73095703 C15.06094398 6.67627643 12.6913285 6.66942739 10.31762695 6.67016602 C8.80262284 6.65541387 7.28764239 6.63792597 5.77270508 6.61743164 C5.06735123 6.61409317 4.36199738 6.6107547 3.63526917 6.60731506 C-0.69600097 6.483107 -3.58752191 5.82414905 -7.01245117 3.11352539 C-7.01245117 2.45352539 -7.01245117 1.79352539 -7.01245117 1.11352539 C-4.30620747 0.21144416 -2.77394132 -0.0087506 0 0 Z " fill="#F0A302" transform="translate(274.012451171875,139.886474609375)"/>
<path d="M0 0 C10.96836955 -0.30514784 21.82772225 0.63465825 32.75 1.5 C34.62236339 1.64495089 36.49475907 1.78948538 38.3671875 1.93359375 C42.91184461 2.28426522 47.45602826 2.640561 52 3 C52 4.65 52 6.3 52 8 C45.88000797 7.59401201 39.76022967 7.18497894 33.640625 6.77319336 C31.56125315 6.6336957 29.4818265 6.4950123 27.40234375 6.35717773 C24.40349589 6.1582599 21.40486104 5.95635911 18.40625 5.75390625 C17.48509399 5.6934462 16.56393799 5.63298615 15.61486816 5.57069397 C10.37861328 5.21388081 5.20135887 4.70324495 0 4 C0 2.68 0 1.36 0 0 Z " fill="#F9F7D0" transform="translate(262,125)"/>
<path d="M0 0 C15.84 0 31.68 0 48 0 C47 4 47 4 46 5 C44.64749134 5.09987872 43.28978379 5.13080948 41.93359375 5.1328125 C41.06621582 5.13474609 40.19883789 5.13667969 39.30517578 5.13867188 C38.35884277 5.13416016 37.41250977 5.12964844 36.4375 5.125 C35.47054199 5.12306641 34.50358398 5.12113281 33.50732422 5.11914062 C22.32722318 5.05471232 11.16504504 4.55281234 0 4 C0 2.68 0 1.36 0 0 Z " fill="#F4FDE5" transform="translate(264,135)"/>
<path d="M0 0 C15.18 0.66 30.36 1.32 46 2 C46.495 4.475 46.495 4.475 47 7 C36.10851507 7.23768041 25.45842945 6.49969921 14.625 5.5 C13.00265455 5.35490428 11.38025881 5.2103698 9.7578125 5.06640625 C5.83793377 4.7173819 1.91880704 4.36085015 -2 4 C-1.34 2.68 -0.68 1.36 0 0 Z " fill="#F4FADF" transform="translate(266,117)"/>
<path d="M0 0 C0.495 1.485 0.495 1.485 1 3 C0.67 3.66 0.34 4.32 0 5 C-16.17 5 -32.34 5 -49 5 C-49.33 3.68 -49.66 2.36 -50 1 C-33.5 0.67 -17 0.34 0 0 Z " fill="#F3F7D4" transform="translate(311,214)"/>
<path d="M0 0 C16.39364251 0.48699868 32.67723453 1.38836736 49 3 C49.33 2.01 49.66 1.02 50 0 C50 2.31 50 4.62 50 7 C40.69856864 7.30441048 31.52177452 6.76750546 22.25 6.0625 C20.49937256 5.93222412 20.49937256 5.93222412 18.71337891 5.79931641 C17.61687012 5.71214355 16.52036133 5.6249707 15.390625 5.53515625 C14.40094727 5.456604 13.41126953 5.37805176 12.39160156 5.29711914 C10 5 10 5 8 4 C6.46331135 3.77532169 4.92031946 3.59203195 3.375 3.4375 C2.55773437 3.35371094 1.74046875 3.26992187 0.8984375 3.18359375 C0.27195312 3.12300781 -0.35453125 3.06242187 -1 3 C-0.67 2.01 -0.34 1.02 0 0 Z " fill="#D8AA14" transform="translate(264,121)"/>
<path d="M0 0 C0 1.32 0 2.64 0 4 C-18.03887201 5.6154855 -35.89103174 6.28035797 -54 6 C-54 5.01 -54 4.02 -54 3 C-47.59562228 2.56903827 -41.19097668 2.14223892 -34.78613281 1.71826172 C-32.60963741 1.57370103 -30.43320386 1.42820568 -28.25683594 1.28173828 C-25.1193008 1.07075124 -21.98155477 0.86318362 -18.84375 0.65625 C-17.39639465 0.55781799 -17.39639465 0.55781799 -15.9197998 0.45739746 C-10.59892979 0.11015637 -5.33217766 -0.06582935 0 0 Z " fill="#F3F5D6" transform="translate(314,207)"/>
<path d="M0 0 C11.55 0.33 23.1 0.66 35 1 C30 7 30 7 27.21679688 7.76049805 C26.22744141 7.76090088 25.23808594 7.76130371 24.21875 7.76171875 C22.58486328 7.76655273 22.58486328 7.76655273 20.91796875 7.77148438 C19.79003906 7.74376953 18.66210938 7.71605469 17.5 7.6875 C16.37207031 7.70232422 15.24414062 7.71714844 14.08203125 7.73242188 C4.91537715 7.64021293 4.91537715 7.64021293 1.71875 4.58203125 C0 2 0 2 0 0 Z " fill="#F2F5D7" transform="translate(270,145)"/>
<path d="M0 0 C1.37109375 2.19921875 1.37109375 2.19921875 2.37109375 5.19921875 C-11.08393936 5.49821949 -24.24995906 4.61585748 -37.62890625 3.19921875 C-37.29890625 2.20921875 -36.96890625 1.21921875 -36.62890625 0.19921875 C-28.99003246 -0.53209287 -21.35250805 -1.16792654 -13.69140625 -1.61328125 C-12.17063477 -1.72833008 -12.17063477 -1.72833008 -10.61914062 -1.84570312 C-3.28207788 -2.24819897 -3.28207788 -2.24819897 0 0 Z " fill="#F0A605" transform="translate(309.62890625,113.80078125)"/>
<path d="M0 0 C1.25 1.5 1.25 1.5 1.25 3.5 C-17.065 3.005 -17.065 3.005 -35.75 2.5 C-35.75 1.84 -35.75 1.18 -35.75 0.5 C-32.61088427 -2.56148472 -30.10875753 -2.92171818 -25.8125 -3.08203125 C-24.67039062 -3.12650391 -23.52828125 -3.17097656 -22.3515625 -3.21679688 C-21.16304688 -3.24837891 -19.97453125 -3.27996094 -18.75 -3.3125 C-16.96722656 -3.38887695 -16.96722656 -3.38887695 -15.1484375 -3.46679688 C-4.45979657 -3.82268278 -4.45979657 -3.82268278 0 0 Z " fill="#F4F8D7" transform="translate(305.75,109.5)"/>
<path d="M0 0 C1.1748999 0.00708984 2.3497998 0.01417969 3.56030273 0.02148438 C4.84227539 0.0240625 6.12424805 0.02664062 7.44506836 0.02929688 C8.10949951 0.04379883 8.77393066 0.05830078 9.45849609 0.07324219 C11.49146037 0.11518412 13.52111843 0.11430367 15.55444336 0.10742188 C25.37634087 0.20628345 25.37634087 0.20628345 27.83740234 2.01953125 C28.93139648 3.61523438 28.93139648 3.61523438 28.93139648 5.61523438 C17.05139648 5.61523438 5.17139648 5.61523438 -7.06860352 5.61523438 C-3.06860352 0.61523438 -3.06860352 0.61523438 0 0 Z " fill="#F4FBEC" transform="translate(276.068603515625,185.384765625)"/>
<path d="M0 0 C0.99 0.33 1.98 0.66 3 1 C2.34 1 1.68 1 1 1 C1 2.32 1 3.64 1 5 C23.77 5 46.54 5 70 5 C70 3.35 70 1.7 70 0 C70.66 0 71.32 0 72 0 C72 2.31 72 4.62 72 7 C48.24 7 24.48 7 0 7 C0 4.69 0 2.38 0 0 Z " fill="#FFFFFF" transform="translate(350,236)"/>
<path d="M0 0 C11.55 0 23.1 0 35 0 C31 5 31 5 28.13085938 5.64697266 C26.50374023 5.65543213 26.50374023 5.65543213 24.84375 5.6640625 C23.06291016 5.67373047 23.06291016 5.67373047 21.24609375 5.68359375 C20.00988281 5.66425781 18.77367187 5.64492187 17.5 5.625 C15.64568359 5.65400391 15.64568359 5.65400391 13.75390625 5.68359375 C12.56667969 5.67714844 11.37945312 5.67070312 10.15625 5.6640625 C9.07150391 5.65842285 7.98675781 5.6527832 6.86914062 5.64697266 C4 5 4 5 0 0 Z " fill="#F7FEF1" transform="translate(269,227)"/>
<path d="M0 0 C7.59 0 15.18 0 23 0 C21.35 1.65 19.7 3.3 18 5 C17.04399957 6.08818815 16.10188312 7.18911503 15.1875 8.3125 C14.465625 9.199375 13.74375 10.08625 13 11 C9.49565146 10.43990974 8.12047667 9.38428252 5.9375 6.625 C4.03033695 4.24736967 2.17364844 2.17364844 0 0 Z " fill="#EFB605" transform="translate(276,152)"/>
<path d="M0 0 C-0.66 0.99 -1.32 1.98 -2 3 C-4.17666626 3.36076355 -4.17666626 3.36076355 -6.90869141 3.34057617 C-8.44005234 3.34023628 -8.44005234 3.34023628 -10.00234985 3.33988953 C-11.10759003 3.32440567 -12.2128302 3.30892181 -13.3515625 3.29296875 C-14.4807309 3.28872391 -15.60989929 3.28447906 -16.77328491 3.28010559 C-20.39076273 3.26327132 -24.00768969 3.22560975 -27.625 3.1875 C-30.07290864 3.17245934 -32.52082598 3.15876986 -34.96875 3.14648438 C-40.9793556 3.11335227 -46.98963846 3.06310579 -53 3 C-53 2.34 -53 1.68 -53 1 C-35.3233162 0.21455529 -17.6937947 -0.14338569 0 0 Z " fill="#D88F06" transform="translate(313,212)"/>
<path d="M0 0 C26.17654243 -0.41277905 26.17654243 -0.41277905 36 2 C35.67 2.66 35.34 3.32 35 4 C30.19450253 4.02468447 25.38904182 4.04285255 20.58349609 4.05493164 C18.94807289 4.05996621 17.3126542 4.06679427 15.67724609 4.07543945 C13.32909025 4.08754335 10.98099381 4.093237 8.6328125 4.09765625 C7.53273361 4.10539818 7.53273361 4.10539818 6.41043091 4.11329651 C1.22774341 4.11387171 1.22774341 4.11387171 -1 3 C-0.67 2.01 -0.34 1.02 0 0 Z " fill="#F19501" transform="translate(263,130)"/>
<path d="M0 0 C1.3602366 0.03301545 2.72004838 0.09234554 4.078125 0.17578125 C4.77550781 0.19833984 5.47289062 0.22089844 6.19140625 0.24414062 C7.90457435 0.30281077 9.61663123 0.39248869 11.328125 0.48828125 C11.328125 1.80828125 11.328125 3.12828125 11.328125 4.48828125 C10.328125 5.48828125 10.328125 5.48828125 8.56225586 5.60180664 C7.81339111 5.59656982 7.06452637 5.59133301 6.29296875 5.5859375 C5.48408203 5.58271484 4.67519531 5.57949219 3.84179688 5.57617188 C2.99166016 5.56779297 2.14152344 5.55941406 1.265625 5.55078125 C0.41162109 5.54626953 -0.44238281 5.54175781 -1.32226562 5.53710938 C-3.43883163 5.52528498 -5.55536185 5.50734894 -7.671875 5.48828125 C-5.37862646 1.73515542 -4.46205632 0.59335855 0 0 Z " fill="#F29E00" transform="translate(284.671875,179.51171875)"/>
<path d="M0 0 C2 2 2 2 2 5 C-4.93 5 -11.86 5 -19 5 C-19 4.34 -19 3.68 -19 3 C-19.99 2.67 -20.98 2.34 -22 2 C-21.01257813 1.93941406 -20.02515625 1.87882813 -19.0078125 1.81640625 C-17.72648437 1.73261719 -16.44515625 1.64882812 -15.125 1.5625 C-13.84882813 1.48128906 -12.57265625 1.40007812 -11.2578125 1.31640625 C-7.18352822 0.92070238 -4.24024009 -0.26501501 0 0 Z " fill="#F4FAED" transform="translate(310,197)"/>
<path d="M0 0 C7.59 0 15.18 0 23 0 C17.37150979 4.22136766 13.04177485 4.14776849 6.1875 4.0625 C5.49462891 4.05798828 4.80175781 4.05347656 4.08789062 4.04882812 C2.39188932 4.03713156 0.69593297 4.01919924 -1 4 C-0.67 2.68 -0.34 1.36 0 0 Z " fill="#F9FEF7" transform="translate(262,200)"/>
<path d="M0 0 C7.26 0 14.52 0 22 0 C18 4 18 4 14.43359375 4.4609375 C13.11488281 4.43257812 11.79617188 4.40421875 10.4375 4.375 C9.42913086 4.37306641 9.42913086 4.37306641 8.40039062 4.37109375 C4.74512716 4.30575637 3.1114672 4.07431147 0 2 C0 1.34 0 0.68 0 0 Z " fill="#F09A00" transform="translate(277,233)"/>
<path d="M0 0 C8.2425317 -0.26305952 15.91191011 0.39385449 24 2 C20.93843346 3.77669223 18.75963785 4.24050818 15.234375 4.1953125 C14.34492188 4.18886719 13.45546875 4.18242187 12.5390625 4.17578125 C11.61867188 4.15902344 10.69828125 4.14226562 9.75 4.125 C8.81414062 4.11597656 7.87828125 4.10695312 6.9140625 4.09765625 C4.60911343 4.07413636 2.3046884 4.04126853 0 4 C0 2.68 0 1.36 0 0 Z " fill="#EFFBDB" transform="translate(262,125)"/>
<path d="M0 0 C7.24997422 -0.28307925 13.90961228 0.49025965 21 2 C20.67 2.99 20.34 3.98 20 5 C9.44 4.67 -1.12 4.34 -12 4 C-12 3.67 -12 3.34 -12 3 C-6.06 2.67 -0.12 2.34 6 2 C3.03 1.505 3.03 1.505 0 1 C0 0.67 0 0.34 0 0 Z " fill="#EFA00E" transform="translate(292,131)"/>
<path d="M0 0 C7.26 0.33 14.52 0.66 22 1 C22 1.99 22 2.98 22 4 C14.24506486 4.09928082 6.68931285 4.06059488 -1 3 C-0.67 2.01 -0.34 1.02 0 0 Z " fill="#DA9501" transform="translate(264,121)"/>
<path d="M0 0 C8.25 0 16.5 0 25 0 C23.68 0.33 22.36 0.66 21 1 C21 1.66 21 2.32 21 3 C13.74 3 6.48 3 -1 3 C-0.67 2.01 -0.34 1.02 0 0 Z " fill="#F6FEF4" transform="translate(273,108)"/>
<path d="M0 0 C7.40239645 -0.12886183 14.63959083 0.20274098 22 1 C22 1.33 22 1.66 22 2 C19.03 2 16.06 2 13 2 C13 2.66 13 3.32 13 4 C14.32 4.33 15.64 4.66 17 5 C8.75 4.67 0.5 4.34 -8 4 C-8 3.67 -8 3.34 -8 3 C-2.06 2.505 -2.06 2.505 4 2 C2.68 1.34 1.36 0.68 0 0 Z " fill="#F1EEA8" transform="translate(278,126)"/>
<path d="M0 0 C-1.5 2.5 -1.5 2.5 -4 5 C-6.94733714 5.66418865 -8.90972061 5.39241643 -12 5 C-14 3.5625 -14 3.5625 -15 2 C-15 1.67 -15 1.34 -15 1 C-9.91913204 0.15318867 -5.15171623 -0.09038099 0 0 Z " fill="#F9FEF2" transform="translate(305,146)"/>
<path d="M0 0 C5.61 0 11.22 0 17 0 C12.57129086 3.32153186 11.53391318 3.3460174 6.25 3.1875 C5.07953125 3.16042969 3.9090625 3.13335937 2.703125 3.10546875 C1.81109375 3.07066406 0.9190625 3.03585938 0 3 C0 2.01 0 1.02 0 0 Z " fill="#FAFDF8" transform="translate(262,216)"/>
<path d="M0 0 C0.66 0.66 1.32 1.32 2 2 C0.38113585 3.67262717 -1.2452729 5.33795537 -2.875 7 C-4.23238281 8.3921875 -4.23238281 8.3921875 -5.6171875 9.8125 C-8 12 -8 12 -10 12 C-10.33 12.66 -10.66 13.32 -11 14 C-10.40762384 10.42973289 -9.02819396 8.54183549 -6.625 5.875 C-6.01914062 5.19179687 -5.41328125 4.50859375 -4.7890625 3.8046875 C-3 2 -3 2 0 0 Z " fill="#E59917" transform="translate(270,98)"/>
<path d="M0 0 C6.52307692 0.61538462 6.52307692 0.61538462 8.9375 2.5625 C9.288125 3.036875 9.63875 3.51125 10 4 C9 5 9 5 6.95874023 5.02172852 C6.08419189 4.97459717 5.20964355 4.92746582 4.30859375 4.87890625 C2.89223633 4.80639648 2.89223633 4.80639648 1.44726562 4.73242188 C0.45404297 4.67634766 -0.53917969 4.62027344 -1.5625 4.5625 C-2.55958984 4.51029297 -3.55667969 4.45808594 -4.58398438 4.40429688 C-7.05627522 4.2741763 -9.5282063 4.13919819 -12 4 C-12 3.67 -12 3.34 -12 3 C-6.06 2.505 -6.06 2.505 0 2 C0 1.34 0 0.68 0 0 Z " fill="#E1B117" transform="translate(286,122)"/>
<path d="M0 0 C4.62 0 9.24 0 14 0 C14 0.99 14 1.98 14 3 C9.38 3 4.76 3 0 3 C0 2.01 0 1.02 0 0 Z " fill="#FCFEF6" transform="translate(297,136)"/>
<path d="M0 0 C4.95 0 9.9 0 15 0 C15 0.99 15 1.98 15 3 C10.38 3 5.76 3 1 3 C0.67 2.01 0.34 1.02 0 0 Z " fill="#E7A302" transform="translate(299,125)"/>
<path d="M0 0 C3.63 0 7.26 0 11 0 C9.68 1.65 8.36 3.3 7 5 C4.625 4.75 4.625 4.75 2 4 C1.34 2.68 0.68 1.36 0 0 Z " fill="#EDF5D9" transform="translate(281,238)"/>
<path d="M0 0 C0.66 0.66 1.32 1.32 2 2 C-1.63 5.63 -5.26 9.26 -9 13 C-9.66 12.34 -10.32 11.68 -11 11 C-7.6189962 6.86378916 -4.33409466 3.18683431 0 0 Z " fill="#FFFFFF" transform="translate(635,105)"/>
<path d="M0 0 C3.25543229 0.34879632 4.01873107 1.02133261 6.25 3.5625 C6.8275 4.366875 7.405 5.17125 8 6 C4.04 5.67 0.08 5.34 -4 5 C-2.68 3.35 -1.36 1.7 0 0 Z " fill="#F5FCE9" transform="translate(287,95)"/>
<path d="M0 0 C-1.98 2.97 -1.98 2.97 -4 6 C-5.875 5.75 -5.875 5.75 -8 5 C-9.25 2.9375 -9.25 2.9375 -10 1 C-6.52674819 -0.1577506 -3.63932552 -0.06866652 0 0 Z " fill="#F1F8EA" transform="translate(293,157)"/>
<path d="M0 0 C0.84755859 0.00966797 1.69511719 0.01933594 2.56835938 0.02929688 C3.44943359 0.05443359 4.33050781 0.07957031 5.23828125 0.10546875 C6.13095703 0.11900391 7.02363281 0.13253906 7.94335938 0.14648438 C10.14644291 0.18182796 12.34830707 0.23116382 14.55078125 0.29296875 C14.55078125 0.62296875 14.55078125 0.95296875 14.55078125 1.29296875 C13.38160156 1.29554688 12.21242188 1.298125 11.0078125 1.30078125 C9.45959757 1.33831373 7.9114212 1.37746141 6.36328125 1.41796875 C5.59435547 1.41539062 4.82542969 1.4128125 4.03320312 1.41015625 C-0.36990287 1.51166661 -0.36990287 1.51166661 -4.04541016 3.68652344 C-5.23844919 5.17705549 -6.34992524 6.73201337 -7.44921875 8.29296875 C-8.10921875 8.29296875 -8.76921875 8.29296875 -9.44921875 8.29296875 C-7.56253917 2.92318841 -6.0283507 -0.12137619 0 0 Z " fill="#F0B71C" transform="translate(272.44921875,190.70703125)"/>
<path d="M0 0 C0.66 0.66 1.32 1.32 2 2 C-2.33333333 6.33333333 -6.66666667 10.66666667 -11 15 C-10.40952677 11.43322251 -9.04264332 9.58466641 -6.625 6.9375 C-6.01914062 6.26589844 -5.41328125 5.59429687 -4.7890625 4.90234375 C-3.22169732 3.23573492 -1.6300642 1.60506322 0 0 Z " fill="#FFFFFF" transform="translate(267,179)"/>
<path d="M0 0 C0.33 0.99 0.66 1.98 1 3 C0.67 3.66 0.34 4.32 0 5 C-2.64 4.67 -5.28 4.34 -8 4 C-8 3.67 -8 3.34 -8 3 C-9.65 2.67 -11.3 2.34 -13 2 C-13 1.67 -13 1.34 -13 1 C-6.565 0.505 -6.565 0.505 0 0 Z " fill="#F2FBE0" transform="translate(311,214)"/>
<path d="M0 0 C1.45823212 -0.0270043 2.91660675 -0.04639787 4.375 -0.0625 C5.18710937 -0.07410156 5.99921875 -0.08570313 6.8359375 -0.09765625 C9 0 9 0 11 1 C13.0374763 1.22858114 15.08040303 1.41024278 17.125 1.5625 C18.76855469 1.68818359 18.76855469 1.68818359 20.4453125 1.81640625 C21.28835938 1.87699219 22.13140625 1.93757812 23 2 C23 2.33 23 2.66 23 3 C17.06 3 11.12 3 5 3 C5 2.67 5 2.34 5 2 C3.35 1.67 1.7 1.34 0 1 C0 0.67 0 0.34 0 0 Z " fill="#F2FBD6" transform="translate(277,209)"/>
<path d="M0 0 C3.09162264 1.38589981 4.49183541 2.49183541 7 5 C3.37 5 -0.26 5 -4 5 C-2.68 3.35 -1.36 1.7 0 0 Z " fill="#E8F3D4" transform="translate(286,174)"/>
<path d="M0 0 C13.365 0.495 13.365 0.495 27 1 C27 1.33 27 1.66 27 2 C18.42 2.33 9.84 2.66 1 3 C0.67 2.01 0.34 1.02 0 0 Z " fill="#EBECAF" transform="translate(270,145)"/>
<path d="M0 0 C2.31 0 4.62 0 7 0 C7.33 1.65 7.66 3.3 8 5 C3.38 5 -1.24 5 -6 5 C-6 4.67 -6 4.34 -6 4 C-2.7 3.67 0.6 3.34 4 3 C2.68 2.01 1.36 1.02 0 0 Z " fill="#F8F2C0" transform="translate(305,119)"/>
<path d="M0 0 C0.66 0 1.32 0 2 0 C2 1.98 2 3.96 2 6 C3.98 6 5.96 6 8 6 C8 6.66 8 7.32 8 8 C5.66705225 8.04241723 3.33297433 8.04092937 1 8 C0 7 0 7 -0.0625 3.4375 C-0.041875 2.303125 -0.02125 1.16875 0 0 Z " fill="#FFFFFF" transform="translate(88,94)"/>
<path d="M0 0 C3.3 0 6.6 0 10 0 C10 0.99 10 1.98 10 3 C6.7 2.67 3.4 2.34 0 2 C0 1.34 0 0.68 0 0 Z " fill="#FAFEE3" transform="translate(291,128)"/>
<path d="M0 0 C2.97 0 5.94 0 9 0 C8.01 0.495 8.01 0.495 7 1 C7 1.66 7 2.32 7 3 C4.36 3 1.72 3 -1 3 C-0.67 2.01 -0.34 1.02 0 0 Z " fill="#E38402" transform="translate(264,121)"/>
<path d="M0 0 C11.52164009 -0.3690205 11.52164009 -0.3690205 17 2 C17 2.33 17 2.66 17 3 C11.39 2.67 5.78 2.34 0 2 C0 1.34 0 0.68 0 0 Z " fill="#EBDD9D" transform="translate(264,119)"/>
<path d="M0 0 C0.86625 0.309375 1.7325 0.61875 2.625 0.9375 C2.625 1.2675 2.625 1.5975 2.625 1.9375 C0.645 1.9375 -1.335 1.9375 -3.375 1.9375 C-3.705 2.9275 -4.035 3.9175 -4.375 4.9375 C-6.9375 6.125 -6.9375 6.125 -9.375 6.9375 C-4.43845733 -0.08219365 -4.43845733 -0.08219365 0 0 Z " fill="#CCAE29" transform="translate(284.375,178.0625)"/>
<path d="M0 0 C0.99 0.33 1.98 0.66 3 1 C1.02 3.97 1.02 3.97 -1 7 C-1.66 6.67 -2.32 6.34 -3 6 C-2.42655063 3.13275314 -2.1385485 2.1385485 0 0 Z " fill="#FFFFFF" transform="translate(292,158)"/>
<path d="M0 0 C0.66 0.33 1.32 0.66 2 1 C0.35 2.98 -1.3 4.96 -3 7 C-3.99 6.67 -4.98 6.34 -6 6 C-4.02 4.02 -2.04 2.04 0 0 Z " fill="#FFFFFF" transform="translate(306,145)"/>
<path d="M0 0 C0 0.33 0 0.66 0 1 C-0.94875 1.103125 -1.8975 1.20625 -2.875 1.3125 C-6.29107501 1.68539295 -6.29107501 1.68539295 -8 5 C-8.66 3.68 -9.32 2.36 -10 1 C-6.52674819 -0.1577506 -3.63932552 -0.06866652 0 0 Z " fill="#EFEC9E" transform="translate(293,157)"/>
<path d="M0 0 C2.31 0 4.62 0 7 0 C6.67 0.99 6.34 1.98 6 3 C4.02 3 2.04 3 0 3 C0 2.01 0 1.02 0 0 Z " fill="#FDFFF9" transform="translate(304,120)"/>
</svg>
